{"title":"Australia's Cheapest Weddings - S01E03","uid":15760427,"size":360523550,"categoryP":"video","categoryS":"tv_shows","magnet":"?xt=urn:btih:bc19d65668fbe4c05f72a0f22c2e0f90fcaf2195&amp;dn=Australia%27s+Cheapest+Weddings+-+S01E03&amp;tr=udp%3A%2F%2Ftracker.leechers-paradise.org%3A6969&amp;tr=udp%3A%2F%2Fzer0day.ch%3A1337&amp;tr=udp%3A%2F%2Fopen.demonii.com%3A1337&amp;tr=udp%3A%2F%2Ftracker.coppersurfer.tk%3A6969&amp;tr=udp%3A%2F%2Fexodus.desync.com%3A6969","seeders":5,"leechers":0,"uploader":"Bullrout","files":1,"time":1473107780,"description":"Australia's Cheapest Weddings - S01E03\r\n\r\nA tattooed pin-up model looks very out of place in a small outback town as she plans to marry her Aussie country boy. Also, a woman tries to lose weight after buying a wedding dress two sizes too small.\r\n\r\nComplete name                            : Australia's Cheapest Weddings - S01E03.mp4\r\nFormat                                   : MPEG-4\r\nFormat profile                           : Base Media / Version 2\r\nCodec ID                                 : mp42 (mp42/isom/avc1)\r\nFile size                                : 344 MiB\r\nDuration                                 : 43mn 3s\r\nOverall bit rate mode                    : Variable\r\nOverall bit rate                         : 1 116 Kbps\r\n\r\nVideo\r\nID                                       : 2\r\nFormat                                   : AVC\r\nFormat/Info                              : Advanced Video Codec\r\nFormat profile                           :   \r\nFormat settings, CABAC                   : Yes\r\nFormat settings, ReFrames                : 3 frames\r\nCodec ID                                 : avc1\r\nCodec ID/Info                            : Advanced Video Coding\r\nDuration                                 : 43mn 3s\r\nBit rate mode                            : Variable\r\nBit rate                                 : 985 Kbps\r\nMaximum bit rate                         : 1 000 Kbps\r\nWidth                                    : 720 pixels\r\nHeight                                   : 404 pixels\r\nDisplay aspect ratio                     : 16:9\r\nOriginal display aspect ratio            : 16:9\r\nFrame rate mode                          : Constant\r\nFrame rate                               : 25.000 fps\r\nStandard                                 : PAL\r\nColor space                              : YUV\r\nChroma subsampling                       : 4:2:0\r\nBit depth                                : 8 bits\r\nScan type                                : Progressive\r\nBits/(Pixel*Frame)                       : 0.135\r\nStream size                              : 303 MiB (88%)\r\nWriting library                          : x264 core 112\r\nColor range                              : Limited\r\nColor primaries                          : BT.601 PAL\r\nTransfer characteristics                 : BT.470 System B, BT.470 System G\r\nMatrix coefficients                      : BT.601\r\n\r\nAudio\r\nID                                       : 1\r\nFormat                                   : AAC\r\nFormat/Info                              : Advanced Audio Codec\r\nFormat profile                           : LC\r\nCodec ID                                 : 40\r\nDuration                                 : 43mn 3s\r\nBit rate mode                            : Variable\r\nBit rate                                 : 128 Kbps\r\nMaximum bit rate                         : 576 Kbps\r\nChannel(s)                               : 2 channels\r\nChannel positions                        : Front: L R\r\nSampling rate                            : 48.0 KHz\r\nFrame rate                               : 46.875 fps (1024 spf)\r\nCompression mode                         : Lossy\r\nStream size                              : 39.4 MiB (11%)","torrent":{"xt":"urn:btih:bc19d65668fbe4c05f72a0f22c2e0f90fcaf2195","amp;dn":"Australia%27s+Cheapest+Weddings+-+S01E03","amp;tr":["udp%3A%2F%2Ftracker.leechers-paradise.org%3A6969","udp%3A%2F%2Fzer0day.ch%3A1337","udp%3A%2F%2Fopen.demonii.com%3A1337","udp%3A%2F%2Ftracker.coppersurfer.tk%3A6969","udp%3A%2F%2Fexodus.desync.com%3A6969"],"infoHash":"bc19d65668fbe4c05f72a0f22c2e0f90fcaf2195","infoHashBuffer":{"type":"Buffer","data":[188,25,214,86,104,251,228,192,95,114,160,242,44,46,15,144,252,175,33,149]},"announce":[],"urlList":[]}}